<svg xmlns="http://www.w3.org/2000/svg" viewBox="0 0 256 256" role="img" aria-label="Clean Care">
  <title>Clean Care</title>
  <rect width="256" height="256" rx="44" fill="#C8102E"/>
  <g transform="translate(46.11 228.00) scale(0.03322 -0.03322)" fill="#FFFFFF">
<path d="M2790 5714 c-888 -82 -1655 -582 -2119 -1383 -576 -992 -477 -2312
237 -3161 408 -486 928 -782 1512 -861 125 -17 498 -17 620 0 581 80 1070 359
1424 814 230 295 257 507 87 674 -65 63 -121 92 -194 100 -85 9 -120 -9 -227
-112 -131 -125 -308 -255 -349 -255 -8 0 -11 139 -11 468 0 529 7 486 -87 547
-137 90 -143 101 -143 302 0 191 -8 224 -68 283 -41 41 -45 50 -52 110 -10 86
-29 121 -95 170 -72 53 -103 100 -111 173 -9 73 -18 72 -33 -2 -14 -73 -49
-125 -122 -185 -60 -48 -99 -112 -99 -162 0 -48 -19 -99 -50 -139 -41 -52 -50
-92 -50 -235 0 -153 -8 -172 -105 -253 l-70 -59 -5 -451 -5 -452 -115 115
c-279 279 -404 589 -404 1000 0 389 122 692 385 951 222 220 441 307 743 296
219 -7 351 -54 553 -195 123 -87 153 -102 211 -109 172 -20 280 138 189 277
-86 128 -402 333 -623 403 -275 87 -625 87 -884 1 -351 -118 -630 -347 -847
-698 -525 -848 -151 -2082 742 -2447 183 -74 335 -102 565 -101 375 1 686 116
933 342 37 35 70 60 74 57 11 -12 -100 -148 -186 -228 -319 -298 -759 -441
-1254 -407 -1252 86 -2040 1510 -1550 2798 274 721 934 1251 1642 1320 538 53
998 -84 1426 -424 115 -92 130 -101 200 -121 131 -39 287 32 349 157 79 158
-8 324 -286 549 -338 274 -742 450 -1183 515 -97 14 -474 26 -565 18z m502
-2391 c13 -11 18 -30 18 -65 l0 -48 -60 0 -60 0 0 53 c0 29 5 58 12 65 17 17
68 15 90 -5z m64 -228 c27 -13 59 -40 72 -58 l22 -33 0 -778 0 -777 -42 3 -43
3 -2 760 c-1 418 -2 770 -3 783 0 18 -5 23 -22 20 l-23 -3 -3 -782 -2 -783
-60 0 -60 0 0 804 c0 442 3 812 6 821 18 45 92 54 160 20z m-412 -411 c23 -9
25 -1164 2 -1164 -48 0 -46 -29 -46 591 0 615 -2 591 44 573z"/>
  </g>
</svg>
