<svg xmlns="http://www.w3.org/2000/svg" viewBox="62 194 1433 602">
<g transform="translate(0.000000,1024.000000) scale(0.100000,-0.100000)"
fill="#C8102E" stroke="none">
<path d="M3410 7994 c-888 -82 -1655 -582 -2119 -1383 -576 -992 -477 -2312
237 -3161 408 -486 928 -782 1512 -861 125 -17 498 -17 620 0 581 80 1070 359
1424 814 230 295 257 507 87 674 -65 63 -121 92 -194 100 -85 9 -120 -9 -227
-112 -131 -125 -308 -255 -349 -255 -8 0 -11 139 -11 468 0 529 7 486 -87 547
-137 90 -143 101 -143 302 0 191 -8 224 -68 283 -41 41 -45 50 -52 110 -10 86
-29 121 -95 170 -72 53 -103 100 -111 173 -9 73 -18 72 -33 -2 -14 -73 -49
-125 -122 -185 -60 -48 -99 -112 -99 -162 0 -48 -19 -99 -50 -139 -41 -52 -50
-92 -50 -235 0 -153 -8 -172 -105 -253 l-70 -59 -5 -451 -5 -452 -115 115
c-279 279 -404 589 -404 1000 0 389 122 692 385 951 222 220 441 307 743 296
219 -7 351 -54 553 -195 123 -87 153 -102 211 -109 172 -20 280 138 189 277
-86 128 -402 333 -623 403 -275 87 -625 87 -884 1 -351 -118 -630 -347 -847
-698 -525 -848 -151 -2082 742 -2447 183 -74 335 -102 565 -101 375 1 686 116
933 342 37 35 70 60 74 57 11 -12 -100 -148 -186 -228 -319 -298 -759 -441
-1254 -407 -1252 86 -2040 1510 -1550 2798 274 721 934 1251 1642 1320 538 53
998 -84 1426 -424 115 -92 130 -101 200 -121 131 -39 287 32 349 157 79 158
-8 324 -286 549 -338 274 -742 450 -1183 515 -97 14 -474 26 -565 18z m502
-2391 c13 -11 18 -30 18 -65 l0 -48 -60 0 -60 0 0 53 c0 29 5 58 12 65 17 17
68 15 90 -5z m64 -228 c27 -13 59 -40 72 -58 l22 -33 0 -778 0 -777 -42 3 -43
3 -2 760 c-1 418 -2 770 -3 783 0 18 -5 23 -22 20 l-23 -3 -3 -782 -2 -783
-60 0 -60 0 0 804 c0 442 3 812 6 821 18 45 92 54 160 20z m-412 -411 c23 -9
25 -1164 2 -1164 -48 0 -46 -29 -46 591 0 615 -2 591 44 573z"/>
<path d="M7020 5220 l0 -650 120 0 120 0 0 650 0 650 -120 0 -120 0 0 -650z"/>
<path d="M6250 5844 c-67 -9 -166 -44 -239 -85 -442 -246 -425 -927 29 -1147
262 -127 589 -85 773 99 37 37 67 71 67 77 0 5 -44 35 -97 66 l-97 57 -45 -45
c-80 -78 -144 -101 -286 -101 -141 0 -204 23 -286 106 -167 166 -161 498 13
654 158 142 410 139 559 -7 l47 -45 92 58 c51 32 95 60 98 63 11 12 -146 153
-203 183 -103 54 -295 84 -425 67z"/>
<path d="M11390 5840 c-147 -26 -297 -110 -384 -216 -224 -274 -188 -725 77
-936 235 -186 607 -198 835 -27 48 36 112 110 112 130 0 7 -139 92 -171 104
-11 4 -32 -7 -60 -34 -152 -141 -415 -135 -562 11 -160 160 -162 476 -2 646
139 150 413 150 564 1 l50 -49 87 55 c49 30 92 55 97 55 40 0 -111 150 -199
197 -110 59 -306 86 -444 63z"/>
<path d="M7741 5484 c-105 -28 -205 -103 -263 -199 -87 -142 -90 -376 -8 -520
138 -241 540 -294 758 -99 l43 39 -55 58 c-64 65 -64 65 -114 34 -177 -112
-404 -48 -447 126 l-7 27 335 0 336 0 7 37 c11 60 -12 198 -45 269 -90 192
-317 288 -540 228z m246 -201 c43 -20 103 -102 103 -139 l0 -24 -215 0 -215 0
0 23 c0 30 39 96 71 119 67 50 178 60 256 21z"/>
<path d="M8743 5485 c-76 -17 -152 -56 -210 -110 l-43 -40 50 -62 50 -61 57
34 c73 44 111 54 203 54 126 -1 200 -52 200 -140 l0 -35 -158 0 c-205 -1 -278
-22 -374 -113 -101 -95 -97 -279 8 -372 69 -60 116 -75 239 -75 125 0 191 23
256 90 44 45 45 44 52 -15 8 -70 5 -68 120 -69 l103 -2 -3 278 c-5 381 -21
461 -109 547 -95 92 -270 128 -441 91z m276 -511 c29 -6 31 -9 31 -54 0 -89
-76 -155 -192 -167 -123 -13 -202 64 -156 150 32 61 189 96 317 71z"/>
<path d="M9865 5483 c-58 -21 -111 -56 -125 -84 -19 -34 -30 -20 -30 36 l0 55
-120 0 -120 0 2 -457 3 -458 118 -3 117 -3 0 269 c0 301 8 351 60 395 64 54
195 63 257 19 71 -50 78 -84 81 -400 l3 -283 117 3 117 3 0 315 c0 380 -6 417
-86 504 -68 74 -127 99 -249 103 -73 3 -107 -1 -145 -14z"/>
<path d="M12433 5486 c-77 -18 -189 -76 -231 -119 l-31 -32 51 -63 50 -63 32
21 c81 55 116 65 223 65 132 0 190 -38 196 -129 l2 -39 -126 2 c-311 5 -500
-127 -474 -333 29 -233 412 -324 579 -137 25 28 46 27 46 -3 0 -13 3 -38 6
-55 l7 -31 101 0 102 0 -3 298 c-4 328 -11 388 -57 464 -79 133 -280 198 -473
154z m271 -516 c32 -12 35 -55 6 -118 -45 -100 -256 -136 -320 -55 -48 61 -6
144 85 168 59 16 193 19 229 5z"/>
<path d="M13511 5479 c-24 -12 -55 -39 -70 -60 -35 -51 -41 -49 -41 16 l0 55
-125 0 -125 0 2 -457 3 -458 122 -3 122 -3 3 278 c3 262 4 280 24 318 39 72
99 107 186 109 37 1 60 6 63 14 10 26 27 193 21 200 -19 19 -142 13 -185 -9z"/>
<path d="M14078 5484 c-289 -69 -428 -433 -273 -710 83 -148 228 -224 426
-224 144 0 256 40 335 121 l38 39 -60 61 -61 61 -43 -27 c-161 -102 -371 -70
-441 67 -42 83 -62 78 316 78 l335 0 2 43 c5 130 -11 216 -55 300 -86 164
-303 244 -519 191z m204 -184 c50 -14 97 -55 119 -105 36 -79 46 -75 -197 -75
l-216 0 5 30 c24 116 159 186 289 150z"/>
</g>
</svg>
