<svg xmlns="http://www.w3.org/2000/svg" viewBox="0 0 500 120" width="500" height="120">
  <!-- Large C icon with building inside -->
  <g fill="#FFFFFF">
    <!-- Outer C curve -->
    <path d="M80,90 C40,90 10,60 10,30 C10,0 40,-30 80,-30 C95,-30 110,-25 120,-15 L105,5 C95,-5 85,-10 80,-10 C55,-10 35,10 35,30 C35,50 55,70 80,70 C90,70 100,65 110,55 L120,70 C110,80 95,90 80,90 Z"/>
    <!-- Inner C curve -->
    <path d="M110,75 C85,75 65,55 65,30 C65,5 85,-15 110,-15 C120,-15 125,-12 130,-5 L120,10 C115,3 110,0 105,0 C90,0 80,15 80,30 C80,45 90,60 105,60 C112,60 118,56 125,48 L132,60 C124,70 118,75 110,75 Z"/>
    
    <!-- Building inside the C -->
    <rect x="95" y="10" width="3" height="35" fill="#FFFFFF"/>
    <rect x="100" y="5" width="4" height="40" fill="#FFFFFF"/>
    <rect x="107" y="15" width="3" height="30" fill="#FFFFFF"/>
    <rect x="93" y="30" width="21" height="2" fill="#FFFFFF"/>
    <polygon points="102,-5 95,5 109,5" fill="#FFFFFF"/>
  </g>

  <!-- Clean Care Text -->
  <text x="155" y="68" font-family="Inter, Arial, Helvetica, sans-serif" font-size="52" font-weight="700" fill="#FFFFFF" letter-spacing="1">
    Clean Care
  </text>
</svg>
